<svg preserveAspectRatio="none" width="100%" height="100%" overflow="visible" style="display: block;" viewBox="0 0 50.8394 57.7263" fill="none" xmlns="http://www.w3.org/2000/svg">
<path id="Star 1" d="M22.4568 2.52971C22.9922 -0.84323 27.8472 -0.84324 28.3826 2.5297L30.4418 15.503C30.7408 17.3865 32.6983 18.5166 34.4789 17.8338L46.7437 13.1305C49.9324 11.9077 52.36 16.1123 49.7066 18.2624L39.5011 26.5323C38.0194 27.733 38.0194 29.9933 39.501 31.194L49.7066 39.4639C52.36 41.614 49.9324 45.8187 46.7437 44.5958L34.4789 39.8925C32.6983 39.2097 30.7408 40.3398 30.4418 42.2233L28.3826 55.1966C27.8472 58.5695 22.9922 58.5695 22.4568 55.1966L20.3976 42.2233C20.0986 40.3399 18.1412 39.2097 16.3605 39.8925L4.09574 44.5958C0.906998 45.8186 -1.52054 41.6141 1.13282 39.4639L11.3384 31.194C12.8201 29.9933 12.8201 27.733 11.3384 26.5323L1.13283 18.2624C-1.52053 16.1123 0.906988 11.9077 4.09573 13.1305L16.3605 17.8338C18.1412 18.5166 20.0986 17.3865 20.3976 15.503L22.4568 2.52971Z" fill="#4A4845"/>
</svg>
